<svg xmlns="http://www.w3.org/2000/svg" width="1200" height="630" viewBox="0 0 1200 630" role="img" aria-label="Daily Pans — factory-direct stainless steel kitchenware">
  <defs>
    <linearGradient id="bg" x1="0" y1="0" x2="1" y2="1">
      <stop offset="0%" stop-color="#faf8f5" />
      <stop offset="100%" stop-color="#f0e9e0" />
    </linearGradient>
  </defs>

  <rect width="1200" height="630" fill="url(#bg)" />
  <rect x="0" y="0" width="1200" height="14" fill="#d95b2b" />

  <!-- pan mark -->
  <g transform="translate(96 232) scale(2.6)" fill="none" stroke="#d95b2b" stroke-width="3">
    <path d="M7 20h26v6a13 13 0 0 1-13 13A13 13 0 0 1 7 26v-6Z" stroke-linejoin="round" />
    <path d="M33 23h5a4 4 0 0 1 0 8h-2" stroke-linecap="round" />
    <path d="M15 14c0-3 3-3 3-6M22 14c0-4 3-4 3-8M29 14c0-3 2-3 2-6" stroke-width="2.5" stroke-linecap="round" opacity="0.65" />
  </g>

  <text x="96" y="200" font-family="Georgia, 'Times New Roman', serif" font-size="34" letter-spacing="7" fill="#8a7f74">
    FACTORY DIRECT · CHENNAI
  </text>

  <text x="380" y="300" font-family="Georgia, 'Times New Roman', serif" font-size="96" font-weight="700" fill="#2b2622">
    Daily Pans
  </text>

  <text x="380" y="360" font-family="Georgia, 'Times New Roman', serif" font-size="38" fill="#5c534b">
    Stainless steel kitchenware, built to last generations.
  </text>

  <g font-family="Georgia, 'Times New Roman', serif" font-size="30" fill="#3d6b58">
    <text x="96" y="500">304 food-grade steel</text>
    <text x="452" y="500">Free shipping over ₹999</text>
    <text x="856" y="500">2-year warranty</text>
  </g>

  <rect x="96" y="530" width="1008" height="2" fill="#ddd3c7" />
  <text x="96" y="580" font-family="Georgia, 'Times New Roman', serif" font-size="28" fill="#8a7f74">
    dailypans.in
  </text>
</svg>
